<svg width="74" height="33" viewBox="0 0 74 33" fill="none" xmlns="http://www.w3.org/2000/svg">
<path d="M2.04672 5H8.40672C9.92672 5 11.2667 5.29333 12.4267 5.88C13.6001 6.45333 14.5067 7.26667 15.1467 8.32C15.8001 9.37333 16.1267 10.6 16.1267 12C16.1267 13.4 15.8001 14.6267 15.1467 15.68C14.5067 16.7333 13.6001 17.5533 12.4267 18.14C11.2667 18.7133 9.92672 19 8.40672 19H2.04672V5ZM8.24672 16.34C9.64672 16.34 10.7601 15.9533 11.5867 15.18C12.4267 14.3933 12.8467 13.3333 12.8467 12C12.8467 10.6667 12.4267 9.61333 11.5867 8.84C10.7601 8.05333 9.64672 7.66 8.24672 7.66H5.28672V16.34H8.24672ZM28.8902 13.66C28.8902 13.7 28.8702 13.98 28.8302 14.5H20.6902C20.8368 15.1667 21.1835 15.6933 21.7302 16.08C22.2768 16.4667 22.9568 16.66 23.7702 16.66C24.3302 16.66 24.8235 16.58 25.2502 16.42C25.6902 16.2467 26.0968 15.98 26.4702 15.62L28.1302 17.42C27.1168 18.58 25.6368 19.16 23.6902 19.16C22.4768 19.16 21.4035 18.9267 20.4702 18.46C19.5368 17.98 18.8168 17.32 18.3102 16.48C17.8035 15.64 17.5502 14.6867 17.5502 13.62C17.5502 12.5667 17.7968 11.62 18.2902 10.78C18.7968 9.92667 19.4835 9.26667 20.3502 8.8C21.2302 8.32 22.2102 8.08 23.2902 8.08C24.3435 8.08 25.2968 8.30667 26.1502 8.76C27.0035 9.21333 27.6702 9.86667 28.1502 10.72C28.6435 11.56 28.8902 12.54 28.8902 13.66ZM23.3102 10.44C22.6035 10.44 22.0102 10.64 21.5302 11.04C21.0502 11.44 20.7568 11.9867 20.6502 12.68H25.9502C25.8435 12 25.5502 11.46 25.0702 11.06C24.5902 10.6467 24.0035 10.44 23.3102 10.44ZM34.5873 19.16C33.694 19.16 32.8207 19.0533 31.9673 18.84C31.114 18.6133 30.434 18.3333 29.9273 18L30.9673 15.76C31.4473 16.0667 32.0273 16.32 32.7073 16.52C33.3873 16.7067 34.054 16.8 34.7073 16.8C36.0273 16.8 36.6873 16.4733 36.6873 15.82C36.6873 15.5133 36.5073 15.2933 36.1473 15.16C35.7873 15.0267 35.234 14.9133 34.4873 14.82C33.6073 14.6867 32.8807 14.5333 32.3073 14.36C31.734 14.1867 31.234 13.88 30.8073 13.44C30.394 13 30.1873 12.3733 30.1873 11.56C30.1873 10.88 30.3807 10.28 30.7673 9.76C31.1673 9.22667 31.7407 8.81333 32.4873 8.52C33.2473 8.22667 34.1407 8.08 35.1673 8.08C35.9273 8.08 36.6807 8.16667 37.4273 8.34C38.1873 8.5 38.814 8.72667 39.3073 9.02L38.2673 11.24C37.3207 10.7067 36.2873 10.44 35.1673 10.44C34.5007 10.44 34.0007 10.5333 33.6673 10.72C33.334 10.9067 33.1673 11.1467 33.1673 11.44C33.1673 11.7733 33.3473 12.0067 33.7073 12.14C34.0673 12.2733 34.6407 12.4 35.4273 12.52C36.3073 12.6667 37.0273 12.8267 37.5873 13C38.1473 13.16 38.634 13.46 39.0473 13.9C39.4607 14.34 39.6673 14.9533 39.6673 15.74C39.6673 16.4067 39.4673 17 39.0673 17.52C38.6673 18.04 38.0807 18.4467 37.3073 18.74C36.5473 19.02 35.6407 19.16 34.5873 19.16ZM41.5923 8.24H44.7123V19H41.5923V8.24ZM43.1523 6.74C42.579 6.74 42.1123 6.57333 41.7523 6.24C41.3923 5.90667 41.2123 5.49333 41.2123 5C41.2123 4.50667 41.3923 4.09333 41.7523 3.76C42.1123 3.42667 42.579 3.26 43.1523 3.26C43.7257 3.26 44.1923 3.42 44.5523 3.74C44.9123 4.06 45.0923 4.46 45.0923 4.94C45.0923 5.46 44.9123 5.89333 44.5523 6.24C44.1923 6.57333 43.7257 6.74 43.1523 6.74ZM58.708 8.24V17.2C58.708 19.1733 58.1946 20.64 57.168 21.6C56.1413 22.56 54.6413 23.04 52.668 23.04C51.628 23.04 50.6413 22.9133 49.708 22.66C48.7746 22.4067 48.0013 22.04 47.388 21.56L48.628 19.32C49.0813 19.6933 49.6546 19.9867 50.348 20.2C51.0413 20.4267 51.7346 20.54 52.428 20.54C53.508 20.54 54.3013 20.2933 54.808 19.8C55.328 19.32 55.588 18.5867 55.588 17.6V17.14C54.7746 18.0333 53.6413 18.48 52.188 18.48C51.2013 18.48 50.2946 18.2667 49.468 17.84C48.6546 17.4 48.008 16.7867 47.528 16C47.048 15.2133 46.808 14.3067 46.808 13.28C46.808 12.2533 47.048 11.3467 47.528 10.56C48.008 9.77333 48.6546 9.16667 49.468 8.74C50.2946 8.3 51.2013 8.08 52.188 8.08C53.748 8.08 54.9346 8.59333 55.748 9.62V8.24H58.708ZM52.808 15.92C53.6346 15.92 54.308 15.68 54.828 15.2C55.3613 14.7067 55.628 14.0667 55.628 13.28C55.628 12.4933 55.3613 11.86 54.828 11.38C54.308 10.8867 53.6346 10.64 52.808 10.64C51.9813 10.64 51.3013 10.8867 50.768 11.38C50.2346 11.86 49.968 12.4933 49.968 13.28C49.968 14.0667 50.2346 14.7067 50.768 15.2C51.3013 15.68 51.9813 15.92 52.808 15.92ZM68.1519 8.08C69.4852 8.08 70.5585 8.48 71.3719 9.28C72.1985 10.08 72.6119 11.2667 72.6119 12.84V19H69.4919V13.32C69.4919 12.4667 69.3052 11.8333 68.9319 11.42C68.5585 10.9933 68.0185 10.78 67.3119 10.78C66.5252 10.78 65.8985 11.0267 65.4319 11.52C64.9652 12 64.7319 12.72 64.7319 13.68V19H61.6119V8.24H64.5919V9.5C65.0052 9.04667 65.5185 8.7 66.1319 8.46C66.7452 8.20667 67.4185 8.08 68.1519 8.08Z" fill="white"/>
<path d="M25.1726 27.468H20.0366L18.8606 30H18.5846L22.4846 21.6H22.7246L26.6246 30H26.3486L25.1726 27.468ZM25.0646 27.24L22.6046 21.924L20.1446 27.24H25.0646ZM30.3757 30.036C29.7917 30.036 29.2677 29.904 28.8037 29.64C28.3397 29.368 27.9757 28.996 27.7117 28.524C27.4557 28.044 27.3277 27.5 27.3277 26.892C27.3277 26.284 27.4557 25.744 27.7117 25.272C27.9757 24.792 28.3397 24.42 28.8037 24.156C29.2677 23.892 29.7917 23.76 30.3757 23.76C30.8317 23.76 31.2517 23.848 31.6357 24.024C32.0277 24.192 32.3517 24.44 32.6077 24.768L32.4397 24.948C32.2077 24.628 31.9117 24.388 31.5517 24.228C31.1917 24.068 30.7997 23.988 30.3757 23.988C29.8397 23.988 29.3557 24.112 28.9237 24.36C28.4997 24.6 28.1677 24.944 27.9277 25.392C27.6877 25.832 27.5677 26.332 27.5677 26.892C27.5677 27.46 27.6877 27.964 27.9277 28.404C28.1677 28.844 28.4997 29.188 28.9237 29.436C29.3557 29.684 29.8397 29.808 30.3757 29.808C30.7997 29.808 31.1917 29.728 31.5517 29.568C31.9117 29.408 32.2077 29.168 32.4397 28.848L32.6077 29.028C32.3517 29.356 32.0277 29.608 31.6357 29.784C31.2517 29.952 30.8317 30.036 30.3757 30.036ZM36.5788 23.76C37.2988 23.76 37.8468 23.948 38.2228 24.324C38.6068 24.692 38.7988 25.228 38.7988 25.932V30H38.5588V28.68C38.3588 29.104 38.0548 29.436 37.6468 29.676C37.2468 29.916 36.7628 30.036 36.1948 30.036C35.5068 30.036 34.9668 29.88 34.5748 29.568C34.1908 29.248 33.9988 28.824 33.9988 28.296C33.9988 27.8 34.1708 27.4 34.5148 27.096C34.8668 26.784 35.4308 26.628 36.2068 26.628H38.5588V25.944C38.5588 25.296 38.3908 24.808 38.0548 24.48C37.7268 24.152 37.2388 23.988 36.5908 23.988C36.1428 23.988 35.7228 24.068 35.3308 24.228C34.9468 24.38 34.6148 24.588 34.3348 24.852L34.1668 24.684C34.4628 24.396 34.8228 24.172 35.2468 24.012C35.6708 23.844 36.1148 23.76 36.5788 23.76ZM36.1948 29.808C37.3468 29.808 38.1348 29.28 38.5588 28.224V26.856H36.1948C35.5228 26.856 35.0268 26.984 34.7068 27.24C34.3948 27.496 34.2388 27.844 34.2388 28.284C34.2388 28.756 34.4108 29.128 34.7548 29.4C35.0988 29.672 35.5788 29.808 36.1948 29.808ZM46.7814 21.096V30H46.5414V28.104C46.3334 28.696 45.9814 29.168 45.4854 29.52C44.9894 29.864 44.4174 30.036 43.7694 30.036C43.2094 30.036 42.6974 29.904 42.2334 29.64C41.7774 29.368 41.4174 28.992 41.1534 28.512C40.8894 28.032 40.7574 27.492 40.7574 26.892C40.7574 26.292 40.8894 25.756 41.1534 25.284C41.4174 24.804 41.7774 24.432 42.2334 24.168C42.6974 23.896 43.2094 23.76 43.7694 23.76C44.4094 23.76 44.9774 23.936 45.4734 24.288C45.9774 24.632 46.3334 25.096 46.5414 25.68V21.096H46.7814ZM43.7694 29.808C44.2894 29.808 44.7614 29.684 45.1854 29.436C45.6094 29.188 45.9414 28.844 46.1814 28.404C46.4214 27.956 46.5414 27.452 46.5414 26.892C46.5414 26.332 46.4214 25.832 46.1814 25.392C45.9414 24.944 45.6094 24.6 45.1854 24.36C44.7614 24.112 44.2894 23.988 43.7694 23.988C43.2494 23.988 42.7774 24.112 42.3534 24.36C41.9294 24.6 41.5974 24.944 41.3574 25.392C41.1174 25.832 40.9974 26.332 40.9974 26.892C40.9974 27.452 41.1174 27.956 41.3574 28.404C41.5974 28.844 41.9294 29.188 42.3534 29.436C42.7774 29.684 43.2494 29.808 43.7694 29.808ZM54.5562 26.892H49.0362C49.0362 27.452 49.1602 27.956 49.4082 28.404C49.6562 28.844 49.9962 29.188 50.4282 29.436C50.8682 29.684 51.3602 29.808 51.9042 29.808C52.3282 29.808 52.7242 29.728 53.0922 29.568C53.4682 29.4 53.7762 29.16 54.0162 28.848L54.1842 29.016C53.9122 29.344 53.5762 29.596 53.1762 29.772C52.7762 29.948 52.3522 30.036 51.9042 30.036C51.3122 30.036 50.7802 29.904 50.3082 29.64C49.8442 29.368 49.4762 28.992 49.2042 28.512C48.9402 28.032 48.8082 27.492 48.8082 26.892C48.8082 26.292 48.9322 25.756 49.1802 25.284C49.4282 24.804 49.7682 24.432 50.2002 24.168C50.6402 23.896 51.1322 23.76 51.6762 23.76C52.2122 23.76 52.7002 23.892 53.1402 24.156C53.5802 24.42 53.9242 24.784 54.1722 25.248C54.4282 25.712 54.5562 26.24 54.5562 26.832V26.892ZM51.6762 23.988C51.1962 23.988 50.7602 24.104 50.3682 24.336C49.9762 24.568 49.6602 24.888 49.4202 25.296C49.1882 25.704 49.0602 26.16 49.0362 26.664H54.3282C54.3042 26.16 54.1722 25.704 53.9322 25.296C53.6922 24.888 53.3762 24.568 52.9842 24.336C52.5922 24.104 52.1562 23.988 51.6762 23.988ZM64.2991 23.76C65.0511 23.76 65.6391 23.984 66.0631 24.432C66.4951 24.872 66.7111 25.508 66.7111 26.34V30H66.4711V26.34C66.4711 25.58 66.2831 25 65.9071 24.6C65.5311 24.192 64.9991 23.988 64.3111 23.988C63.5271 23.988 62.9071 24.232 62.4511 24.72C61.9951 25.2 61.7671 25.836 61.7671 26.628V30H61.5271V26.34C61.5271 25.58 61.3391 25 60.9631 24.6C60.5871 24.192 60.0551 23.988 59.3671 23.988C58.5831 23.988 57.9631 24.232 57.5071 24.72C57.0511 25.2 56.8231 25.836 56.8231 26.628V30H56.5831V23.796H56.8231V25.44C57.0071 24.912 57.3191 24.5 57.7591 24.204C58.1991 23.908 58.7311 23.76 59.3551 23.76C59.9871 23.76 60.5071 23.92 60.9151 24.24C61.3231 24.552 61.5871 25.008 61.7071 25.608C61.8671 25.04 62.1711 24.592 62.6191 24.264C63.0751 23.928 63.6351 23.76 64.2991 23.76ZM73.9303 23.796L70.6303 30.996C70.4063 31.492 70.1543 31.844 69.8743 32.052C69.5943 32.26 69.2623 32.364 68.8783 32.364C68.3183 32.364 67.8703 32.18 67.5342 31.812L67.7142 31.62C67.8822 31.804 68.0583 31.936 68.2423 32.016C68.4263 32.096 68.6423 32.136 68.8903 32.136C69.2103 32.136 69.4863 32.044 69.7183 31.86C69.9583 31.684 70.1823 31.372 70.3903 30.924L70.8223 29.976L67.9783 23.796H68.2543L70.9543 29.724L73.6543 23.796H73.9303Z" fill="white"/>
</svg>
