<svg width="30" height="32" viewBox="0 0 30 32" fill="none" xmlns="http://www.w3.org/2000/svg">
<path d="M26.25 13.3333C26.25 22.6666 15 30.6666 15 30.6666C15 30.6666 3.75 22.6666 3.75 13.3333C3.75 10.1507 4.93526 7.09841 7.04505 4.84797C9.15483 2.59753 12.0163 1.33325 15 1.33325C17.9837 1.33325 20.8452 2.59753 22.955 4.84797C25.0647 7.09841 26.25 10.1507 26.25 13.3333Z" stroke="white" stroke-width="2" stroke-linecap="round" stroke-linejoin="round"/>
<path d="M15 17.3333C17.0711 17.3333 18.75 15.5424 18.75 13.3333C18.75 11.1241 17.0711 9.33325 15 9.33325C12.9289 9.33325 11.25 11.1241 11.25 13.3333C11.25 15.5424 12.9289 17.3333 15 17.3333Z" stroke="white" stroke-width="2" stroke-linecap="round" stroke-linejoin="round"/>
</svg>
