<svg width="30" height="32" viewBox="0 0 30 32" fill="none" xmlns="http://www.w3.org/2000/svg">
<path d="M27.5 22.56V26.56C27.5015 26.9313 27.4301 27.2989 27.2907 27.6391C27.1512 27.9793 26.9467 28.2847 26.6901 28.5358C26.4336 28.7868 26.1308 28.9779 25.801 29.0969C25.4712 29.2159 25.1218 29.2601 24.775 29.2266C20.9286 28.7808 17.2338 27.3788 13.9875 25.1333C10.9673 23.0862 8.40671 20.3549 6.48754 17.1333C4.37501 13.6549 3.06034 9.69463 2.65004 5.5733C2.6188 5.20459 2.65988 4.83298 2.77066 4.48213C2.88145 4.13128 3.0595 3.80889 3.2935 3.53546C3.52749 3.26204 3.81229 3.04358 4.12978 2.894C4.44726 2.74441 4.79046 2.66698 5.13754 2.66663H8.88754C9.49417 2.66026 10.0823 2.8894 10.5422 3.31134C11.0022 3.73328 11.3026 4.31923 11.3875 4.95997C11.5458 6.24005 11.8394 7.49694 12.2625 8.70663C12.4307 9.18386 12.4671 9.70252 12.3674 10.2011C12.2677 10.6998 12.0361 11.1574 11.7 11.52L10.1125 13.2133C11.892 16.5514 14.4831 19.3152 17.6125 21.2133L19.2 19.52C19.5399 19.1615 19.969 18.9144 20.4364 18.8081C20.9039 18.7017 21.3901 18.7406 21.8375 18.92C22.9716 19.3714 24.15 19.6845 25.35 19.8533C25.9572 19.9447 26.5118 20.2709 26.9082 20.77C27.3046 21.269 27.5152 21.9061 27.5 22.56Z" stroke="white" stroke-width="2" stroke-linecap="round" stroke-linejoin="round"/>
</svg>
