<svg width="10" height="10" viewBox="0 0 10 10" fill="none" xmlns="http://www.w3.org/2000/svg">
<path d="M7.32182 6.93465L7.32175 6.93473C7.27299 6.99192 6.46387 7.9157 4.986 7.9157C3.18862 7.9157 1.91404 6.56301 1.91404 4.8226C1.91404 3.09627 3.23729 1.7718 4.97189 1.7718C6.37835 1.7718 7.12392 2.55578 7.17607 2.61263C7.17609 2.61265 7.1761 2.61267 7.17612 2.61268L6.99186 2.78164C7.02692 2.81986 7.04832 2.86863 7.05269 2.92032C7.05707 2.972 7.04418 3.02367 7.01604 3.06725L7.32182 6.93465ZM7.32182 6.93465C7.39248 6.85172 7.43312 6.74739 7.43717 6.63851C7.44122 6.52964 7.40844 6.42257 7.34414 6.33462L7.34413 6.33461L6.86471 5.67893C6.68515 5.43329 6.32492 5.41163 6.11762 5.63642L6.1174 5.63666C6.11797 5.63604 6.11792 5.63609 6.11726 5.63677C6.10866 5.6456 5.99723 5.75997 5.81134 5.8749C5.61108 5.99873 5.33789 6.11498 5.02125 6.11498C4.62069 6.11498 4.32788 5.95331 4.13081 5.71677C3.92929 5.47488 3.82053 5.14451 3.82053 4.8085C3.82053 4.44747 3.93818 4.13949 4.13789 3.92419C4.33539 3.71127 4.62807 3.57252 5.0142 3.57252C5.59374 3.57252 6.04042 3.9615 6.05342 3.97283C6.05368 3.97305 6.05376 3.97312 6.05369 3.97305L6.22279 3.78893M7.32182 6.93465L7.22604 3.20288M7.22604 3.20288L6.78894 3.87973L6.78891 3.87977C6.62543 4.13281 6.27338 4.1765 6.05293 3.97236L6.22279 3.78893M7.22604 3.20288C7.22604 3.20288 7.22605 3.20287 7.22605 3.20287L7.22604 3.20288ZM6.22279 3.78893C6.21824 3.78475 5.70465 3.32252 5.0142 3.32252C4.1135 3.32252 3.57053 3.97828 3.57053 4.8085C3.57053 5.58197 4.06885 6.36498 5.02125 6.36498C5.77705 6.36498 6.29625 5.8115 6.30141 5.8059L6.57893 3.7441C6.49984 3.8665 6.32943 3.88768 6.22279 3.78893ZM0.25 4.84375C0.25 2.30668 2.30668 0.25 4.84375 0.25C7.38082 0.25 9.4375 2.30668 9.4375 4.84375C9.4375 7.38082 7.38082 9.4375 4.84375 9.4375C2.30668 9.4375 0.25 7.38082 0.25 4.84375Z" stroke="white" stroke-width="0.5"/>
</svg>
