<svg width="22" height="24" viewBox="0 0 22 24" fill="none" xmlns="http://www.w3.org/2000/svg">
<path d="M19.9375 12H16.5V9C16.5 7.34531 17.7332 6 19.25 6H19.5938C20.1652 6 20.625 5.49844 20.625 4.875V2.625C20.625 2.00156 20.1652 1.5 19.5938 1.5H19.25C15.4516 1.5 12.375 4.85625 12.375 9V20.25C12.375 21.4922 13.2988 22.5 14.4375 22.5H19.9375C21.0762 22.5 22 21.4922 22 20.25V14.25C22 13.0078 21.0762 12 19.9375 12ZM7.5625 12H4.125V9C4.125 7.34531 5.3582 6 6.875 6H7.21875C7.79023 6 8.25 5.49844 8.25 4.875V2.625C8.25 2.00156 7.79023 1.5 7.21875 1.5H6.875C3.07656 1.5 0 4.85625 0 9V20.25C0 21.4922 0.923828 22.5 2.0625 22.5H7.5625C8.70117 22.5 9.625 21.4922 9.625 20.25V14.25C9.625 13.0078 8.70117 12 7.5625 12Z" fill="#5D43FB"/>
</svg>
